<?xml version="1.0" encoding="UTF-8" standalone="no"?>
<!DOCTYPE svg PUBLIC "-//W3C//DTD SVG 1.1//EN" "http://www.w3.org/Graphics/SVG/1.1/DTD/svg11.dtd">
<svg width="100%" height="100%" viewBox="0 0 3000 3000" version="1.1" xmlns="http://www.w3.org/2000/svg" xmlns:xlink="http://www.w3.org/1999/xlink" xml:space="preserve" xmlns:serif="http://www.serif.com/" style="fill-rule:evenodd;clip-rule:evenodd;stroke-linecap:round;stroke-linejoin:round;">
    <g transform="matrix(133.153379,0,0,151.117451,-97.840545,-468.635356)">
        <path d="M7,14L9.293,11.707C9.683,11.317 10.317,11.317 10.707,11.707L12.293,13.293C12.683,13.683 13.317,13.683 13.707,13.293L17,10M17,10L17,12.5M17,10L14.5,10" style="fill:none;fill-rule:nonzero;stroke:#000000;stroke-width:1.5px;"/>
    </g>
    <g transform="matrix(140.109423,0,0,124.222474,-181.313073,-53.881159)">
        <path d="M12,6.909C10.9,5.509 9.204,4.109 5.001,4.006C4.725,3.999 4.5,4.224 4.5,4.5L4.5,16.597C4.5,16.873 4.725,17.09 5.001,17.099C9.204,17.236 10.9,19.1 12,20.5M12,6.909C13.1,5.509 14.796,4.109 18.999,4.006C19.275,3.999 19.5,4.218 19.5,4.495L19.5,16.596C19.5,16.872 19.275,17.09 18.999,17.099C14.796,17.236 13.1,19.1 12,20.5M12,6.909L12,20.5" style="fill:none;fill-rule:nonzero;stroke:#000000;stroke-width:1px;stroke-linecap:butt;"/>
    </g>
    <g transform="matrix(127.165355,0,0,127.165355,-25.984258,-114.210206)">
        <path d="M20.263,6L21.5,6C21.776,6 22,6.224 22,6.5L22,19.539C22,19.944 21.523,20.212 21.154,20.048C20.358,19.695 19.032,19.263 17.294,19.263C14.353,19.263 12,21 12,21C12,21 9.647,19.263 6.706,19.263C4.968,19.263 3.642,19.695 2.846,20.048C2.477,20.212 2,19.944 2,19.539L2,6.5C2,6.224 2.224,6 2.5,6L3.737,6" style="fill:none;fill-rule:nonzero;stroke:#000000;stroke-width:1px;stroke-linecap:butt;"/>
    </g>
</svg>
